<?xml version="1.0" encoding="UTF-8"?>
<svg id="Symbol_White" xmlns="http://www.w3.org/2000/svg" version="1.1" viewBox="0 0 1080 1080">
  <!-- Generator: Adobe Illustrator 30.1.0, SVG Export Plug-In . SVG Version: 2.1.1 Build 136)  -->
  <rect width="1080" height="1080"/>
  <path d="M604.04,1001.81l-37.24-157.06c-10.71,10.58-21.84,18.78-34.9,26.07-35.87,19.86-82.1,25.57-122.56,23.31-12.51-.7-23.69-4.93-34.17-11.03-13.78,25.36-35.43,43.8-62.73,50.73-34.13,8.66-69.41-2.82-91.98-29.52-7.29-8.62-12.64-17.68-17.77-28.12-51.42-8.63-86.51-47.47-101.38-96.29-8.69-28.52-9.53-59.86-8.21-89.67.73-16.38,1.38-32.02,4.05-48.17l-2.32,49.13.12,38c.06,20.16,3.98,39.73,10.65,58.61,7.81,22.08,20.09,41.26,36.86,57.01,38.69,36.33,96.15,40.87,139.99,10.67,17.28-11.91,31.97-27.8,41.89-47.42-37.31,19.76-80.9,18.58-115.69-4-30.75-19.95-48.03-54.95-47.35-91.14l12.79-.46,66.3-.03c4.09,0,7.75.15,12.13-.23-8.61-8.04-15.81-15.01-23.12-23.83l-42.7-.12-.31-45.49c-.1-14.61,1.98-28.71,9.74-40.95-1.06-5.16.1-12.33-1.3-16.88-3.04-9.9-5.89-18.27-7.94-28.34l-76.22.05c-.97-.13-2.85-3.25-3.81-3.61-4.04-1.5-8.13-7.24-5.78-12.55,2.03-4.59,7-7.15,12.6-5.32,5.22-18.63,12.27-35.59,19.99-52.93,4.63-10.4,9.65-19.48,15.87-29.51l-7.56-7.79c-22.63-23.32-17.57-62.12,7.29-83.15,20.45-17.29,49.12-19.22,72.23-4.92l19.52-17.84c7.45-59.61,42.07-119.93,82.64-163.63,24.88-26.81,53.52-48.8,85.99-65.6,88.19-45.61,194.85-41.83,278.86,11.23l38.48,10.32c26.87-7.98,68.5-18.39,95.96-13.99,7.05,1.13,12.4,6.14,13.66,11.65,1.83,7.99-1.82,13.46-7.38,18.29-8.6,7.47-17.71,13.22-28.36,19.97l17.63,13.45,23.23,18.63c15.59-15.49,34.63-35.73,34.24-58.31-.01-.77,1.4-2.4,2-2.2s1.98,1.67,2.03,2.75c.99,22.09-19.42,45.16-35.29,60.53l22.48,20.21-81.2,82.87c10.18,23.28,16.15,47.02,19.17,71.95l6.22,51.25c45.48.3,82.63,6.57,117.95,36.91l15.76,13.54c9.16-7.56,21.12-9.21,31.06-3.07,7.71,4.77,11.99,13.64,11.13,22.31-.88,8.89-6.31,16.88-15.12,20.79,26.73,38.13,9.34,92.96-33,109.1-28.71,10.94-60.12,2.07-78.16-22.39-13.43,5.74-27.11,16.32-24.22,31.95,2.27,12.29,4.19,13.99-2.2,23.49.81,19.78-14.34,19.57-10.08,23.86,2.12,2.13,5.31,5.78,5.98,8.47,2.56,10.38-3.02,19.61-11.82,24.3-26.74,14.28-10.95,25.19-14.67,42.8-6.54,30.98-29.02,61.37-63.77,61.39l-154.27.09-17.57,21.28,35.98,153.95,60.27-144.35c-6.23-3.96-9.67-10.35-7.44-17.01,2.48-7.41,9.74-11.43,17.08-9.16,6.86,2.12,11.12,9.5,9.19,16.29-2.14,7.56-8.64,11.73-17.13,10.3l-62.3,148.6ZM325.09,281.31l13.27-7.01c18-29.79,39.79-56.49,65.73-79.6,57.87-51.82,131.93-80.24,209.62-80.8,21.47-.15,41.02,1.67,62.98,4.55-75.13-44.41-170.85-47.78-249.63-12.89-74.73,33.1-134.05,97.61-165.44,172.44-7.78,18.55-13.11,36.55-15.97,56.59l11.51-8.49,21.11-15.76c15.56-11.61,29.64-19.95,46.82-29.03ZM476.25,259.58c40.17-41.1,88.08-65.02,144.53-66.83,26.61-22.88,55.22-40.33,87.07-53.84l-19.96-14.02c-53.83-10.91-109.51-9.62-162.45,6.2-74.33,22.22-139.47,73.11-179.74,139.98,23.58-9.24,44.43-15.6,67.8-16.62,8.14-1.16,16.08-1.33,24.17-.1,4.88.22,9.92.37,14.71,1.18l23.87,4.04ZM830,145.37l2.5-8.83c2.06-7.3-2.01-12.74-9.11-15.11-24.94-4.18-64.45,4.47-88.96,12.21,23.5,9.37,43.86,19.18,64.3,32.79,10.94-6.19,21.19-12.85,31.28-21.06ZM720.37,133.42c-8.19-2.7-13.28-4.12-20.25-5.15l11.47,9.14,8.78-3.99ZM739.15,191.79c-.15,4.49-.2,8.29.08,12.53l56.35-35.88c-21.7-14.3-43.91-24.49-67.6-33.08l-12.57,4.74c8.98,8.64,16.62,16.03,23.55,24.52l.19,27.15ZM737.25,205.96l-.29-39.21c-8.17-9.31-16.44-17.55-25.54-25.24-30.96,13.27-59.48,29.43-84.33,51.19,33.09,1.85,61.7,10.39,87.8,27.46l22.35-14.2ZM759.71,260.67l36.97-24.56c15.23-11.14,29.31-22.1,43.64-35.5-8.25-6.88-15.73-13.19-24.29-18.77l-19.01-12.4-56.79,36.16c-2.56,1.63-.96,13.03-1.1,20.39l-.23,12.68,20.8,22ZM564.23,226.38c11.48-5.36,23.33-8.71,35.08-12.29l15.79-16.76c-52.32,2.39-97.96,26.79-133.83,63.06l22.66,6.63c18.44-16.4,38.04-30.24,60.3-40.64ZM696.87,232.02l14.12-9.66c-27.58-17.52-57.9-25.23-89.61-25.29l-16.06,16.18c32.22-5.7,64.05.5,91.55,18.77ZM811.42,276.5l53.72-54.55-21.55-18.74c-25.29,23.32-52.42,42.74-82.02,60.55,9.71,12.62,16.95,25.04,23.66,39.66l26.19-26.93ZM737.24,236.94l-.25-28.88-20.16,12.79,20.42,16.09ZM694.79,232.66c-17.97-11.55-37.26-19.25-57.76-19.29l-14.84-.03c-6.5.02-13.22.47-19.48,2.41-19.17,21.27-35.48,44.28-47.73,70.06,22.87,9.83,43.19,20.38,63.16,33.94,21.32-35.18,42.55-63.52,76.66-87.08ZM551.39,284.17c11.93-24.67,27.27-45.96,44.48-66.82-12.87,2.56-22.96,6.97-33.87,11.67-20.03,10.19-38.43,22.41-55.9,38.38l45.29,16.78ZM736.89,272.61l.3-30.24-24.15-19.16-14.52,9.74c16.18,11.94,27.19,24.84,38.37,39.66ZM656.25,350.56c23.23-30.44,49.94-54.03,80.16-74.88-10.93-16.6-23.75-30.8-39.96-41.83-10.78,6.82-19.35,14.08-28.14,22.61-19.31,18.92-35.14,40.73-48.55,64.39,13.07,9.56,24.62,19.42,36.49,29.71ZM738.81,273.79l17.08-11.13-16.52-17.57-.33,13.69-.23,15.02ZM303.09,556.28l-12.16.5,2.95,10.77c33.66-15.59,59.45-42.11,73.99-75.13-5.01-3.48-9.69-6.12-13.08-9.49-11.13-18.19-11.43-40.39-1.26-60.36,8.45-16.6,26.23-28.22,46.04-31.94,17.09-50.39,38.69-90.7,74.97-129.46-2.99-.78-5.59-1.31-8.36-1.64l-22.14-2.68-10.74-.98c-4.97-.45-10.55-.39-15.54.03l-9.7.8c-20.93,1.73-45.51,8.84-64.78,17.24-11.58,19.05-21.41,37.96-30.05,58.83,36.33,20.82,42.09,69.35,16.7,99.74,6.46-12.47,12.58-23.34,13.75-36.99,2.12-24.62-8.96-48.47-31.16-61.28-14.49,35.04-23.99,71.13-27.36,108.96l18.06,11.29-.13,101.8ZM502.48,268.15l-22.95-6.44c-34.92,36.66-60.01,80.41-75.14,128.62l15.69,1.69c17.88-47.97,45.5-87.99,82.4-123.88ZM764.22,324.88l17.96-18.27c-6.91-15.1-14.24-28.32-24.15-40.66l-18.1,12.03c9.78,15.78,16.63,29.84,24.3,46.91ZM482.18,409.68c11.93-4.78,23.64-7.12,36.87-6.6,3.23-40.47,13.22-79.49,31.53-117.24-15.59-6.55-30.5-12.14-46.25-16.99-36.84,34.59-64.75,76-82.75,123.66,13.64,4.26,25.52,11.9,34.66,22.56,8.76-2.59,16.79-4.17,25.94-5.39ZM257.31,328.15l15.88-2.56c12.28-1.93,24.54-.17,36.16,5.24,8-18.35,16.71-35.02,26.54-53.12-5.3,1.88-9.45,4.24-13.73,6.88-22.24,11.91-45.97,27.17-64.85,43.57ZM696.97,359.31c2.86,11.35-.02,21.15,1.83,32.13l38.33-39.08-.29-72.06c-30.74,21.28-56.54,45.35-78.27,73.81,13.39,13.3,24,27.02,34.34,41.97,3.04-.81,4.17-4.43,3.98-7.54-.7-9.98-1.68-19.32.08-29.24ZM739.42,349.88l23.41-23.47c-6.92-16.15-13.43-30.6-23.35-45.08-1.41,5.58-.27,10.24-.27,15.42l-.03,41.09c0,4.09-.08,7.33.23,12.04ZM592.79,373.6c7.38-18.2,15.23-34.84,24.62-52.31l-23.95-15.04-39.26-19.16c-18.02,36.74-28.3,75.38-31.3,115.96,19.65,1.93,37.27,8.9,52.78,20.77l17.11-50.22ZM796.68,428.78l10.48-.29-6.45-53.69c-2.77-23.03-8.47-44.74-17.76-66.24l-18.03,17.91c6.59,17.78,13.02,34.71,18.06,52.88l13.7,49.42ZM611.98,425.85c11.62-26.39,25.1-50.35,42.78-73.57-11.05-11.06-22.67-20.61-35.79-30.13-18.58,33.01-31.52,67.28-41.61,102.96,10.01,7.84,17.29,16.64,24.23,26.18l10.39-25.44ZM246.94,384.92c5.48,21.44,17.37,40.25,34.31,54.54,4.15-37.47,13.32-72.31,27.54-106.86-18.47-9.68-41.18-6.85-58.6.94-3.97,1.78-5.61,5.57-5.88,9.56-1,14.32-.92,27.89,2.64,41.83ZM739.28,434.21c-.22,3.57-.23,6.29,0,9.48,17.94-8.19,35.36-12.88,55.5-14.66-8.73-34.86-18.06-67.76-31.31-100.89l-23.86,24.24c-1.45,3.53-.93,9.65-.3,14.03l-.03,67.8ZM240.96,376.87c-.92-12.67-.98-22.69-.77-35.53l-17.43,15.98c8.11,6.5,13.17,12.19,18.19,19.55ZM220.32,358.08c-10.99-6.9-22.37-9.4-34.8-8.92-31.73,1.22-56.61,27.96-55.62,59.74.49,15.98,7.26,31.07,19.93,41.05.83.65,2.41-2.89,2.96-3.8,21.66-36.01,38.04-56.84,67.53-88.07ZM654.83,436.43l37.32-37.95c-9.52-15.41-21.03-29.52-34.46-43.32-23.39,31-40.97,65.23-53.25,101.51l9.13,22.24,41.26-42.48ZM722.88,452.51l14.31-7.93-.31-89.48-38,38.56c-.27,3.51-1.07,9.38.19,12.41,9.31,15.44,16.7,30.01,23.8,46.43ZM199.22,553.61c9.09-44.58,39.65-90.46,80.68-110.34-17.53-14.09-28.91-32.23-35.51-53.09-4.05-12.78-11.27-23.78-22.98-31.16-27.64,28.01-50.53,57.75-70.23,92.25l37.04,31.41.56,11.31v60.21c3.55.85,7.1,1.02,10.45-.6ZM389.91,430.21l9.05-37.39c-19.88,2.59-36.34,15.54-44.37,31.29-9.87,19.36-8.87,40.61,1.57,58.33l12.51,8.51c6.79-17.78,17.14-43.77,21.24-60.74ZM405.03,455.14c6.8-20.45,5.66-41.3,14.57-61.07-6.61-1.45-10.25-1.82-16.04-1.79-8.32,29.06-17.32,69.72-11.03,100.42l12.5-37.57ZM454.04,415.64c-9.49-11.3-20.23-17.9-33.1-21.26-6.51,18.87-11.65,36.77-12.65,57.15,11.29-17.67,26.93-28.49,45.76-35.88ZM696.38,470.24l-.1-12.21c-.1-12.01-.36-23.7.04-35.71l.5-15.14c.06-1.87-2.74-5.45-4.29-6.82l-78.61,80.5c10.97,19.49,15.98,39.71,16.94,60.65l28.09-36.12c11.71-12.79,23.38-23.8,37.44-35.17ZM518.9,414.27l-.48-7.62-19.83,2.12c1.52,1.15,2.67,1.6,4.3,1.96l16.01,3.54ZM573.72,432.36c.92-3.29-.02-5.44-2.92-7.34-14.61-9.57-29.97-16.77-47.75-17.82-.79,3.13-.81,6.87.38,9.57,18.46,7.29,32.58,19.97,44.62,35.87l5.67-20.28ZM698.22,468.57l22.75-15.07c-5.83-15.34-12.89-29.89-22.15-44.41-1.05,5.59-.74,10.68-.72,16.35l.13,43.13ZM475.84,542.08c-6.42-16.52-7.26-30.6-.93-45,7.53-17.78,24.59-28.75,43.7-29.99l-.24-50.58c-9.97-3.98-20.91-5.29-31.52-4.69-8.52,3.7-16.02,7.76-23.52,13.81,7.5,14.63,10.05,30.42,5.85,46.42-2.54,9.7-6.18,20.32-14.82,26.84,16-20.86,20.39-47.77,7.74-71.79-19.97,17.97-27.75,44.2-21.26,69.82,4.8,18.97,17.22,36.09,35,45.15ZM461.57,422.04l13.05-9.34c-6.28.57-11.02,1.67-17.47,4l4.42,5.33ZM519.63,568.53c-16.11-.26-28.77-7.56-38.51-18.93-32.32-14.06-51.13-47.36-45.57-82.28,2.73-17.13,10.98-31.75,24.4-43.2l-4.49-7.28c-21.51,8.29-37.46,19.07-47.71,40.08-2.92,46.14,11.1,90.01,55.88,109.39,17.16,7.43,29.32,20.56,35,38.91,16.5-1.56,24.32-23.6,20.99-36.7ZM561.9,489.38l5.83-33.63c-10.93-16.83-26.47-30.38-45.76-37.77v49.11c16.58,1.17,30.6,8.22,39.93,22.29ZM587.5,493.95l12.45-36.99c-6.01-10.54-13.69-19.4-23.74-27.56l-6.55,25.82c8.03,12.02,13.05,24.22,17.84,38.74ZM785.19,454.53c7.94-1.08,11.94,2.45,18.15,7.34l-8.23-31.05c-20.07,1.16-37.88,6.26-55.87,14.7-.31,3.37-.2,7.07-.21,10.49l-.08,14.82,18.72-8.79c8.48-3.98,17.94-6.2,27.51-7.5ZM806.08,667.37c16.92-8.77,31.77-6.17,28.33-20.48-4.41-18.35-2.13-25.39,11.68-37.89-5.78,1.15-10.92,3.48-15.83,2.8-5.47-.75-10.05-4.77-11.32-8.47-1.77-5.17-1.15-11.37,3.8-14.72l-.54,3.95c10.46-10.51,40.71-8.49,40.17.97-.06,1.1-1.69,3.24-2.76,3.66l-21.77,8.75c-5.07,2.03-10.14.52-15.62-1.4,9.3,14.79,26.79-2.32,36.67-4.29,7.67-1.53,12.92-2.9,17.3-9.84,6.21-9.82,5.47-21.31-4.06-29.02-39.04-31.56-61.28-80.54-64.45-130.72-3.61-.39-6.46-.32-10.76.18l8.34,31.63-33.83,30.76,38.88-11.43c1-.29,3.48.23,3.97,1.02,2.7,4.34-13.64,31.12-17.18,36.39l-48.77,72.56c-2.51,3.73-6.64,8.21-7.26,12.39-.88,5.96-1.28,12.4-.46,18.33.88,6.3,10.91,15.72,15.75,42.23,2.22,12.14-1.53,35.45-7.94,47.7l8.8.03,39.99-.51,11.91-.37c3.92-.12,9.44-1.24,13.33-2.69,4.2-2.58,6.2-11.39,3.55-15.53-2.04-3.18-4.85-6.22-7.19-8.92-7.04,3.47-24.13,5.52-26.03-1.7-1.62-6.17,8.05-12.69,13.27-15.39ZM943.72,479.76l-12.81-10.92c-37-31.54-70.34-38.88-119.02-38.22,2.3,38.17,15.14,73.69,39.54,104.35,12.62-34.73,51.68-52.99,86.43-40.54,1.45-5.38,3.16-9.82,5.86-14.67ZM286.27,554.52c-4.74-26.26-6.75-49.52-7.36-74.22l1.77-35.27c-40.1,18.05-71.93,66.61-80.03,109.6l85.62-.11ZM301.29,554.07l-.14-96.72-16.56-9.79c-3.22,36.22-.64,71.47,5.93,106.69,4.12.58,7.51.54,10.76-.18ZM391.41,513.34c-3.59-17.38-5.89-31.82-5.07-47.84l.43-17.83-16.86,44.77c8.08,6.72,14.15,13.69,21.5,20.9ZM730.76,476.04c2.87-1.36,5.6-3.13,6.43-4.5l-.09-24.72-14.03,7.2,3.86,11.13,3.82,10.88ZM186.96,554.76l-.18-8.09-.05-54.74.04-8.35-36.34-30.63-13.95,27.77c-6.15,12.25-18.58,42.83-21.11,55.59,2.99,2.89,4.59,6.61,3.19,10.56-.89,2.51-3.97,4.76-7.43,7.82l75.83.08ZM728.99,477.26c-1.55-6-5.43-18.09-7.94-22.38l-22.92,15.87.07,29.54,30.79-23.03ZM767.84,494.06l33.44-29.75c-7.32-19.68-49.89,1.74-62.19,8.36l-.19,10.74c-.13,7.25-.06,14.43.45,21.12l28.49-10.48ZM583.54,510.11l2.99-9.95c-2.78-14.88-7.96-28.81-17.24-41.61-2.97,11.73-4.61,22.87-5.54,34.02,3.43,5.87,4.84,10.41,6.25,17.62,3.86.21,8.87.18,13.54-.08ZM493.48,597.48c-5.55-14.73-16.94-23.43-29.98-29.49-24.46-10.36-42.43-29.75-50.92-54.96-5.5-16.34-6.52-32.38-7.54-50.54-6.74,12.15-9.51,24.67-12.04,37.47,5.93,32.2,25.88,58.37,54.78,72.6l25.46,12.54c7.16,3.52,13.44,8.07,20.23,12.39ZM610.53,481.55l-8.21-18.84c-4.78,13.44-8.87,25.36-12.07,39.31,8.05-7.18,13.84-13.37,20.28-20.46ZM696.4,502.21l-.09-16.66c-.02-4.39.41-8.46-.25-13.03-26,20.72-47.07,44.87-65.18,72.31l.48,31.05c19.35-28.38,39.65-50.83,65.05-73.67ZM960.59,506.49l10.98,11.16c7.1-3.15,12.29-10.07,13.66-16.29,1.79-8.14-.55-15.93-6.24-21.36-9.18-8.76-23.11-8.47-32.46-.02l8.77,7.47c4.85-4.01,10.11-4.29,14.3-1.48,3.91,2.63,5.74,8.06,4.05,12.78-1.92,5.38-7.31,7.35-13.06,7.74ZM736.96,502.58c.73-9.85.58-17.68.21-28.07l-6.31,3.62,6.1,24.45ZM698.29,523.99l36.84-17.6c-1.34-9-3.23-17.8-5.85-27.48-11.15,7.17-20.89,14.8-31.04,23.65l.05,21.42ZM953.17,501.66c-.54-5.27-.32-8.13.77-13.3l-8.45-7.18c-3.49,4.5-5.61,8.64-5.13,14l12.81,6.48ZM564.15,667.5l24.66-14.5c3.58-39.59,17.8-71.54,38.13-105.23-.05-22.36-4.54-43.3-15.88-63.78l-21.56,21.76.83,19.89c-.86,29.43-9.76,54.67-22.47,81.08-2.28,20.1-3.89,39.54-3.71,60.79ZM776.62,540.32l-35.6,1.7.37,56.98,52.22-77.2c2.31-3.42,22.52-36.3,19.08-37.7-5.27-2.14-33.9,9.52-40.96,12.18l-33.48,12.64,2.68,29.3,36.77-1.64c.87-.04,2.18,1.7,1.7,2l-2.79,1.76ZM971.14,520.27l-7.28.47c-13.88.89-24.6-10.25-25.57-24.3-34.78-13.05-73.8,5.12-85.53,40.46,7.1,8.42,14.73,15.32,22.76,22.16,9.13,7.78,11.08,19.34,5.94,29.87-3.76,7.71-9.51,12.8-18.82,15.71,19.18,26.05,53.7,33.47,82.09,19,37.04-18.88,50.44-68.1,26.41-103.36ZM404.48,605.16c6.45.5,11.94.42,18.28.24-1.93-21.56-5.55-42.6-16.1-61.37l-11.75-20.9c-6.28-11.18-15.49-20.74-25.66-29.06-16.43,34.32-42,60.17-75.64,75.23l10.05,36.25,70.72-.24c10-.03,19.51-.98,30.11-.15ZM939.97,496.99c.82,14.36,13.67,25.81,28.85,21.36-2.59-7.55-20.99-18.16-28.85-21.36ZM696.39,524.26l-.39-19.37-13.76,12.73,14.15,6.64ZM736.42,538.13c.24-10.67.39-18.54-.5-28.18l-37.42,17.97c-.28,3.26-.28,6,.27,8.86l37.65,1.35ZM533.47,686.31l26.38-15.78c.27-53.96,7.96-106.45,22.97-158.38l-12.58-.22c.63,15.08-3.03,29.18-13.76,40.35-10.81,42.84-21.58,88-23.01,134.02ZM587.06,512.25c-8.23,28.93-14.42,56.28-17.95,85.84,11.67-16.72,24.29-68.01,17.95-85.84ZM696.22,585.15v-37.37s.1-7.53.1-7.53l-14.58-1.65c-.6-.07-1.75-.69-2.17-1s.59-2.2,1.11-2.54l14.44-9.33-13.99-7.08c-19.01,19.7-38.49,39.7-50.37,64.04l.08,44.41,26.55-14.54c12.76-6.99,25.33-12.52,38.96-18.18l-.12-9.23ZM696.66,536.54l-.41-7.26-9.04,6.17,9.46,1.09ZM737.67,596.83c-1.05-14.75-.98-28.53-1.17-42.7l-.16-12.31-38.2-1.38.13,53.4c8.33-2.66,14.44-3.47,21.26-.7,6.39,3.74,10.56,9.75,13.31,17.02,5.49-3.03,5.25-7.53,4.84-13.32ZM739.31,542.49h-1.05v41.66h1.05v-41.66ZM493.09,605.3c-5.56-9-13.21-11.46-20.23-15.97l-28.21-13.93c-12.11-5.98-21.98-14.33-31.72-23.42,5.47,17.49,10.19,33.63,11.02,50.47.05,1.01,1.97,3.19,3.35,3.18l65.8-.34ZM615.98,636.2c.62-18.85,4.51-35.1,11.25-51.33l-.52-32.66c-18.24,28.1-33.64,64.45-35.64,98.78l24.91-14.79ZM198.67,556.95c-3.65-.4-7.01-.34-9.65.66,1.15,8.07,2.47,13.91,6.16,20.27l3.48-20.92ZM289.67,569.25l-3.28-12.75-86.11.14c-2.83,14.93-4.26,28.98-2.69,43.27,8.24-9.58,17.88-18.36,30.26-19,21.29-1.1,41.88-3.24,61.83-11.66ZM520.57,668.46c2.45,7.29,5.63,13.26,10.58,19.23,1.6-19.31,2.26-36.95,6.13-55.51l15.73-75.42c-10.75,7.17-19.41,11.46-31.12,11.76,1.72,16.05-5.12,34.4-22.06,38.35l20.74,61.59ZM220.91,640.78c3.41-.08,6.99-.06,9.51-.36,3.22-6.56,9.41-9.44,15.79-9.41,6.43.03,11.8,3.93,15.03,9.99l51.36-.06c-9.81-22.88-16.71-45.14-22.6-69.45l-19.01,5.66c-6.23,1.86-12.84,3.34-19.37,3.83l-22.82,1.7c-13.49,1.01-24.27,9.42-31.35,20.84,1.55,13.2,4.1,25.55,8.46,37.64l14.99-.37ZM627.18,628.96l-.74-37.24c-5.64,14.14-8.3,28.04-8.44,42.88,4.24-2.11,6.66-3.58,9.18-5.64ZM732.4,612.14c-2.8-5.07-4.57-8.46-7.27-12.18-6.32-8.7-16.99-8.11-26.92-4.6l-.03,52.38c13.95-10.47,24.72-21.81,34.22-35.61ZM696.69,648.76l-.15-52.61c-22.99,8.74-43.84,20.2-65.33,32.79,2.79,8.62,6.68,16.42,12.59,22.65,15.31,16.13,36.81,9.95,52.9-2.83ZM203.53,640.91l-7.88-34.88c-6.31,10.93-8.18,22.85-7.55,34.95l15.43-.07ZM421.61,640.18l1.56-33-41.44-.27-77.58.12,12.82,33.82,10.07-.17,85.26-.02c3.28,0,6.36.3,9.32-.49ZM487.26,636.66c4.15-16.7,13.55-22.03,8.05-29.5l-18.63.52c-13.48.38-26.61.66-40.02-.04l-11.89-.63.03,8.31c.04,8.77-.84,16.35-1.81,25.38h10.34c-1.69-14.83,8.87-25.5,22.9-26.74,15.01-1.33,27.29,11.01,26.24,25.49-.07.97,3.67,1.74,3.89.85l.91-3.64ZM737.1,630.37l.37-8.35-4.85-7.23c-1.96,1.29-3.19,4.52-1.9,6.37l6.38,9.2ZM526.44,686.32l-10.91-26.31-14.77-44.19-6.67,12.73c-11.61,29.07,7.15,46.53,32.36,57.77ZM628.47,712.76l8.64-.4h91.53s8.48-.04,8.48-.04l.19-77.42-8.62-14.56c-9.66,11.62-19.16,20.85-30.46,29.53l-.04,38.44-61.12-.05c-2.13,0-5.3,0-6.23.24l-2.36,24.25ZM752.55,694.52c5.43-18.74,2.97-38.16-5.66-54.97l-6.09-11.86c-1.02,6.05-.13,10.74,1.91,15.69,5.31,12.94,7.97,26.29,8.29,40.36.09,3.79.64,7.5,1.56,10.78ZM593.83,687.16c12.06-1.77,21.61-1.36,33.09-.47l-.02-54.99-36.21,21.82c-.26,11.49-.01,22.39,3.14,33.64ZM696.19,651.79c-7.65,4.24-13.33,7.33-19.9,9.79-11.16,3.02-22.15,1.18-30.98-6.27-6.5-6.07-10.44-13.24-14.6-21.33l.08,52.69,65.76-.16-.36-34.72ZM738.87,712.3c1.83.46,6.86.94,7.58-.6,1.56-3.32,2.29-9.72,2.61-14.08,1.43-19.67-.61-38.8-9.42-56.25-1.09,6.34-1.05,12.09-.32,18.19l-.1,44.3-.36,8.44ZM227.5,686.45c-9.88-14.76-17.28-27.82-23.09-43.73l-15.91-.22.1,6.5-.03,37.67,38.94-.22ZM336.79,686.57c-9.12-14.85-16.61-28.63-23.57-43.89h-51.73c2.37,11.94-6.37,20.74-16.39,20.49-10.76-.26-17.85-9.44-15.85-20.5l-23.04-.1c6.19,16.41,13.2,30.38,23.98,43.45,3.06,1.44,7.89.42,11.4.2,8.84-.55,17.42-.03,26.28.28,9.33-.48,18.15-.32,27.49-.25l41.44.32ZM396.93,685.99c3.13.71,6.55.73,9.09.06,7.68-13.55,12.3-27.48,14.82-43.31l-102.94-.1c6.87,15.35,14.41,28.91,23.21,43.06,3.2,1.6,8.39,1.18,12.19.22l43.64.07ZM486.34,642.65c-2.39-.66-4.84.99-5.65,3.15-3.63,9.63-12.9,14.74-22.97,14.57-11.42-.19-20.6-6.52-24.01-17.58-4.2-.06-7.81,0-11.36.31-2.34,15.74-7.36,28.55-14.02,43.48l108.08-.17c-8.56-5.61-15.72-10.18-21.58-17.43-5.95-7.74-8.44-16.59-8.5-26.32ZM591.47,686.58c-1.87-11-2.38-20.57-2.79-31.83l-24.91,15.14.3,16.88,27.4-.18ZM557.29,686.52c.73.03,2.81-1.37,2.78-1.9l-.71-12.2-20.77,13.31,18.69.79ZM354.85,711.98l-16.98-23.61-52.06-.18-50.67-.35-2.25.02c-.37,0-.37.95-.41,1.66,7.39,7.9,14.14,16.08,23.31,22.1,4.46,2.93,12.13.65,17.35.66l70.63.07c3.9,0,7.77.29,11.08-.39ZM386.66,712c7.68-7.79,13.28-14.93,18.02-23.92l-52.38-.13c-3.41,0-5.9-.38-9.4.65l17.74,23.99c3.43.24,7.31.54,10.65.34l15.37-.92ZM505.96,711.83c7.79-7.11,13.67-13.16,20.97-20.69-3.47-1.88-6.76-2.84-10.68-2.84l-109.51.05c-5.22,9.3-10.81,16.07-17.94,24.16l13.06-.16,90.58-.06c3.53,0,10.65,2.14,13.52-.47ZM559.83,712.76v-24.85s-26.35.5-26.35.5l5.63,24.04,9.32.12,11.4.18ZM600.35,712.84l-8.72-24.63-27.82-.16.36,24.78,36.18.02ZM624.61,712.48l2.22-24.37-33.32-.09c2.79,9.92,5.19,15.88,8.89,24.58l9.36.04,12.84-.15ZM521.48,712.5l15.95.12-6-24.03-22.52,23.37c3.8,1.35,7.9.5,12.56.54ZM648.54,817.69l90.73.19c32.74.07,53.26-27.17,60.37-56.08,5.05-20.55-14.85-28.34,19.16-49.57-7.43.08-14.42,1.04-22.06,1.63-13.38,1.03-26.72.54-40.52.35-2.21-.03-7.69-1.28-8.68.61-4.22,8.04-7.23,15.22-11.83,22.52-11.54,18.31-25.34,28.19-43.2,39.78-15.2,9.87-35.22,23.28-43.98,40.57ZM255.93,714.36c-5.16-.45-10.16-.11-15.57-.11h-67.3c-2.74,0-4.88-.19-7.93.09.02,35.72,17.55,68.87,47.86,87.68,35.65,22.12,80.55,21.21,115.72-1.56,9.58-20.1,14.94-41.38,14.41-64.59-32.19,5.4-61.36-2.71-87.19-21.51ZM344.81,714.41l-71.64-.07c-4.78,0-9.23-1.69-14.2.24,31.18,22.25,73.22,29.14,107.68,10.79-14.28-15.66-6.12-10.94-21.83-10.95ZM383.52,714.68c-8.01-1.17-13.27-1.48-21.14-.45l8.5,9.2,12.63-8.75ZM503.45,714.92c-5.47-2.08-8.11-.54-12.07-.55l-91.55-.05c-.8,0-17.43-2.87-18.68,5.9l-1.85,12.94c18.25,18.2,37.69,32.59,60.25,46.02l63.91-64.26ZM556.07,794.05l-18.24-80-16.87.31c-4.95-.6-10.46-.8-15.31.46l-64.5,65.19c34.97,19.54,72.66,31.23,112.07,35.67l2.85-21.64ZM559.8,713.8l-20.23.1,10.42,44.99c2.07,8.92,3.72,17.21,6.41,26.36,2.57-23.58,3.53-47.36,3.4-71.44ZM619.1,738.63c-7.6-7.66-12.88-15.61-18.05-24.7l-37.21.04c.27,28.93-1.71,56.54-4.38,84.79-.55,5.86,2.12,11.69,2.69,17.88l22.31.67c16.34-24.28,27.25-50.51,34.64-78.68ZM623.97,714.07h-20.67c4.72,8.75,9.07,15.15,16.09,22.62l4.59-22.62ZM745.47,714.6c-7.36-.99-10.78-.86-15.83-.21l-93.56-.02c-2.44,0-6.76-.97-7.88.69l-5.2,24.85c16.86,15.12,35.15,22.01,58.34,19.92,27.86-2.51,52.2-20.13,64.14-45.23ZM332.89,796.77c21.66-15.21,35.36-38.15,41.86-62.8l-7.15-6.99c-7.73,3.51-14.63,6.1-22.67,8.5.32,21-4.47,40.26-12.04,61.29ZM734.03,735.93c-2.61,1.61-4.71,3.32-6.91,5.28-30.43,26.92-73.57,28.25-104.68.63-7.8,28.03-18,52.34-33.26,75.84l57.21.26c20.52-37.89,68.14-45.12,87.64-82ZM351.18,855.08c-3.98-9.96-1.97-21.16,5.83-28.18,4.95-4.45,11.06-5.54,17.3-3.53,4.37,2.52,7.73,6.21,10.46,10.66l51.86-52.08c-22.28-12.84-41.18-27.17-58.65-44.54-8.09,28.71-25.4,52.15-49.79,67.97-24.38,46.42-68.52,76.35-123.32,71.1,21.47,49.57,75.68,72.99,124.64,49.39,19.21-9.26,34.14-24.67,44.34-43.75-12.16-9.68-17.18-13.29-22.67-27.04ZM544.04,858.66c1.79-1.21,3.16-6.3,3.52-8.43l5.21-30.49c-40.91-4.75-78.84-16.55-114.63-36.81l-50.65,51.05-2.77,5.97c1.05,13.62-1.83,26.37-7.61,39.41,10,6.41,21.46,10.29,33.61,10.87,46.41,2.23,94.12-5,133.31-31.58ZM565.89,839.79l-4.85-18.41c-.35-1.31-4.82-1.18-5.03.01-1.48,8.7-3.85,19.05-7.28,27.44-.87,2.42-1.23,4.04-1.18,7.25,6.63-5.27,12.34-10.24,18.35-16.29ZM580.87,821.7l-17.9-.84,4.4,17.49c5.53-6.02,8.83-9.79,13.5-16.65ZM359.1,860.31l22.6-22.86c-2.13-5.06-6.2-9.91-11.9-10.93s-10.98,2.94-13.76,8c-4.54,8.25-3.26,18.69,3.07,25.8ZM375.72,878.34c4.83-10.31,10.33-30.29,6.4-38.91l-22.87,23.11c5.39,6.35,9.79,10.82,16.48,15.8Z" fill="#fff"/>
</svg>