<?xml version="1.0" encoding="UTF-8"?>
<svg id="Layer_2" data-name="Layer 2" xmlns="http://www.w3.org/2000/svg" viewBox="0 0 811 220">
  <g id="Logo_Simbolo_Black" data-name="Logo + Simbolo Black">
    <g>
      <g>
        <g id="Text_Tal" data-name="Text Tal">
          <path d="M54.02,186.7V49.31H0v-18.23h128.94v18.23h-54.02v137.39h-20.9Z"/>
          <path d="M164.73,188.92c-8.6,0-15.89-1.6-21.9-4.78-6-3.19-10.56-7.56-13.67-13.12-3.11-5.56-4.67-11.82-4.67-18.78,0-11.71,3.45-20.15,10.34-25.34,6.89-5.19,16.78-7.78,29.68-7.78h38.24v-8c0-10.08-2.26-17.04-6.78-20.9-4.52-3.85-11.3-5.78-20.34-5.78-8.45,0-14.6,1.6-18.45,4.78-3.85,3.19-6,6.78-6.45,10.78h-19.56c.45-6.37,2.59-12.04,6.45-17.01,3.85-4.96,9.12-8.93,15.78-11.89,6.67-2.96,14.45-4.45,23.34-4.45,9.34,0,17.41,1.44,24.23,4.34,6.81,2.89,12.08,7.41,15.79,13.56,3.7,6.15,5.56,14.26,5.56,24.34v47.8c0,6.22.04,11.67.11,16.34.08,4.67.41,9.22,1,13.67h-17.12c-.44-3.41-.74-6.63-.89-9.67-.15-3.03-.23-6.48-.23-10.34-3.11,6.22-8.15,11.49-15.12,15.78-6.96,4.3-15.41,6.45-25.34,6.45ZM168.96,171.14c6.22,0,11.89-1.11,17-3.34,5.11-2.22,9.19-5.48,12.23-9.78,3.03-4.3,4.56-9.56,4.56-15.78v-8h-34.9c-7.26,0-12.97,1.44-17.12,4.34-4.15,2.89-6.22,7.45-6.22,13.67,0,5.49,1.96,10,5.89,13.56,3.93,3.56,10.11,5.34,18.56,5.34Z"/>
          <path d="M300.11,186.7c-8.15,0-14.78-1.29-19.9-3.86-5.11-2.57-8.82-6.62-11.12-12.14-2.3-5.52-3.44-12.69-3.44-21.52V31.08h19.56v118.09c0,7.65,1.26,12.88,3.78,15.67,2.52,2.8,6.96,4.19,13.34,4.19,1.63,0,3.03-.04,4.22-.11,1.18-.07,2.37-.18,3.56-.33v17.22c-.74.14-1.74.29-3,.44-1.26.15-2.52.26-3.78.33-1.26.07-2.33.11-3.23.11Z"/>
        </g>
        <g id="Text_Mi" data-name="Text Mi">
          <path d="M598.92,186.7V31.08h21.79l52.02,98.93,52.02-98.93h20.9v155.61h-20.9v-117.82l-44.68,84.48h-15.56l-44.68-84.48v117.82h-20.9Z"/>
          <path d="M797.66,57.02c-3.85,0-7.04-1.22-9.56-3.67-2.52-2.45-3.78-5.55-3.78-9.29s1.26-6.84,3.78-9.29c2.52-2.45,5.7-3.67,9.56-3.67s7.04,1.23,9.56,3.67c2.52,2.45,3.78,5.55,3.78,9.29s-1.26,6.84-3.78,9.29c-2.52,2.45-5.71,3.67-9.56,3.67ZM787.88,186.7v-114.55h19.56v114.55h-19.56Z"/>
        </g>
      </g>
      <path id="Symbol" d="M470.77,220l-8.87-37.41c-2.55,2.52-5.2,4.47-8.31,6.21-8.54,4.73-19.56,6.09-29.19,5.55-2.98-.17-5.64-1.17-8.14-2.63-3.28,6.04-8.44,10.43-14.94,12.08-8.13,2.06-16.53-.67-21.91-7.03-1.74-2.05-3.01-4.21-4.23-6.7-12.25-2.06-20.61-11.31-24.15-22.94-2.07-6.79-2.27-14.26-1.95-21.36.17-3.9.33-7.63.96-11.47l-.55,11.7.03,9.05c.01,4.8.95,9.46,2.54,13.96,1.86,5.26,4.78,9.83,8.78,13.58,9.22,8.65,22.9,9.74,33.35,2.54,4.12-2.84,7.62-6.62,9.98-11.29-8.89,4.71-19.27,4.42-27.56-.95-7.32-4.75-11.44-13.09-11.28-21.71l3.05-.11h15.79c.97,0,1.84.03,2.89-.06-2.05-1.92-3.77-3.58-5.51-5.68l-10.17-.03-.07-10.84c-.02-3.48.47-6.84,2.32-9.75-.25-1.23.02-2.94-.31-4.02-.72-2.36-1.4-4.35-1.89-6.75h-18.16c-.23-.02-.68-.76-.91-.85-.96-.36-1.94-1.73-1.38-2.99.48-1.09,1.67-1.7,3-1.27,1.24-4.44,2.92-8.48,4.76-12.61,1.1-2.48,2.3-4.64,3.78-7.03l-1.8-1.86c-5.39-5.55-4.19-14.8,1.74-19.81,4.87-4.12,11.7-4.58,17.2-1.17l4.65-4.25c1.77-14.2,10.02-28.57,19.68-38.98,5.93-6.39,12.75-11.62,20.48-15.62,21.01-10.86,46.41-9.96,66.42,2.67l9.17,2.46c6.4-1.9,16.32-4.38,22.86-3.33,1.68.27,2.95,1.46,3.25,2.77.44,1.9-.43,3.21-1.76,4.36-2.05,1.78-4.22,3.15-6.75,4.76l4.2,3.2,5.53,4.44c3.71-3.69,8.25-8.51,8.16-13.89,0-.18.33-.57.48-.52s.47.4.48.65c.24,5.26-4.62,10.76-8.41,14.42l5.36,4.81-19.34,19.74c2.42,5.55,3.85,11.2,4.57,17.14l1.48,12.21c10.83.07,19.68,1.56,28.1,8.79l3.75,3.22c2.18-1.8,5.03-2.19,7.4-.73,1.84,1.14,2.86,3.25,2.65,5.31s-1.5,4.02-3.6,4.95c6.37,9.08,2.22,22.14-7.86,25.99-6.84,2.61-14.32.49-18.62-5.33-3.2,1.37-6.46,3.89-5.77,7.61.54,2.93,1,3.33-.52,5.6.19,4.71-3.42,4.66-2.4,5.68.5.51,1.27,1.38,1.42,2.02.61,2.47-.72,4.67-2.81,5.79-6.37,3.4-2.61,6-3.49,10.19-1.56,7.38-6.91,14.62-15.19,14.62l-36.75.02-4.18,5.07,8.57,36.67,14.36-34.38c-1.48-.94-2.3-2.46-1.77-4.05.59-1.76,2.32-2.72,4.07-2.18,1.63.5,2.65,2.26,2.19,3.88-.51,1.8-2.06,2.79-4.08,2.45l-14.84,35.4ZM404.33,48.38l3.16-1.67c4.29-7.1,9.48-13.46,15.66-18.96,13.78-12.34,31.43-19.11,49.93-19.25,5.11-.04,9.77.4,15,1.08-17.9-10.58-40.7-11.38-59.46-3.07-17.8,7.88-31.93,23.25-39.41,41.07-1.85,4.42-3.12,8.71-3.81,13.48l2.74-2.02,5.03-3.75c3.71-2.77,7.06-4.75,11.15-6.92ZM440.33,43.21c9.57-9.79,20.98-15.49,34.43-15.92,6.34-5.45,13.15-9.61,20.74-12.83l-4.75-3.34c-12.82-2.6-26.08-2.29-38.7,1.48-17.71,5.29-33.22,17.41-42.81,33.34,5.62-2.2,10.58-3.72,16.15-3.96,1.94-.28,3.83-.32,5.76-.02,1.16.05,2.36.09,3.5.28l5.68.96ZM524.59,16l.59-2.1c.49-1.74-.48-3.04-2.17-3.6-5.94-1-15.35,1.07-21.19,2.91,5.6,2.23,10.45,4.57,15.31,7.81,2.61-1.47,5.05-3.06,7.45-5.02ZM498.48,13.16c-1.95-.64-3.16-.98-4.82-1.23l2.73,2.18,2.09-.95ZM502.96,27.06c-.04,1.07-.05,1.97.02,2.99l13.42-8.55c-5.17-3.41-10.46-5.83-16.1-7.88l-2.99,1.13c2.14,2.06,3.96,3.82,5.61,5.84l.04,6.47ZM502.5,30.43l-.07-9.34c-1.95-2.22-3.92-4.18-6.08-6.01-7.37,3.16-14.17,7.01-20.09,12.19,7.88.44,14.7,2.48,20.91,6.54l5.32-3.38ZM507.85,43.47l8.81-5.85c3.63-2.65,6.98-5.26,10.39-8.46-1.97-1.64-3.75-3.14-5.78-4.47l-4.53-2.95-13.53,8.61c-.61.39-.23,3.1-.26,4.86l-.06,3.02,4.95,5.24ZM461.29,35.3c2.73-1.28,5.56-2.07,8.35-2.93l3.76-3.99c-12.46.57-23.33,6.38-31.88,15.02l5.4,1.58c4.39-3.91,9.06-7.2,14.36-9.68ZM492.88,36.64l3.36-2.3c-6.57-4.17-13.79-6.01-21.34-6.02l-3.83,3.85c7.68-1.36,15.26.12,21.81,4.47ZM520.17,47.24l12.79-12.99-5.13-4.46c-6.02,5.56-12.49,10.18-19.54,14.42,2.31,3.01,4.04,5.97,5.64,9.45l6.24-6.41ZM502.5,37.81l-.06-6.88-4.8,3.05,4.86,3.83ZM492.39,36.79c-4.28-2.75-8.88-4.59-13.76-4.59h-3.53c-1.55,0-3.15.1-4.64.57-4.57,5.07-8.45,10.55-11.37,16.69,5.45,2.34,10.29,4.85,15.04,8.08,5.08-8.38,10.14-15.13,18.26-20.74ZM458.23,49.06c2.84-5.88,6.49-10.95,10.59-15.92-3.07.61-5.47,1.66-8.07,2.78-4.77,2.43-9.15,5.34-13.31,9.14l10.79,4ZM502.42,46.31l.07-7.2-5.75-4.56-3.46,2.32c3.85,2.84,6.48,5.92,9.14,9.45ZM483.21,64.88c5.53-7.25,11.89-12.87,19.09-17.84-2.6-3.95-5.66-7.34-9.52-9.96-2.57,1.63-4.61,3.35-6.7,5.39-4.6,4.51-8.37,9.7-11.56,15.34,3.11,2.28,5.86,4.63,8.69,7.08ZM502.87,46.59l4.07-2.65-3.94-4.18-.08,3.26-.06,3.58ZM399.09,113.88l-2.9.12.7,2.57c8.02-3.71,14.16-10.03,17.62-17.9-1.19-.83-2.31-1.46-3.11-2.26-2.65-4.33-2.72-9.62-.3-14.38,2.01-3.95,6.25-6.72,10.97-7.61,4.07-12,9.22-21.6,17.86-30.84-.71-.19-1.33-.31-1.99-.39l-5.27-.64-2.56-.23c-1.18-.11-2.51-.09-3.7,0l-2.31.19c-4.98.41-10.84,2.11-15.43,4.11-2.76,4.54-5.1,9.04-7.16,14.01,8.65,4.96,10.03,16.52,3.98,23.76,1.54-2.97,3-5.56,3.28-8.81.51-5.87-2.13-11.55-7.42-14.6-3.45,8.35-5.71,16.94-6.52,25.95l4.3,2.69-.03,24.25ZM446.58,45.25l-5.47-1.53c-8.32,8.73-14.29,19.15-17.9,30.64l3.74.4c4.26-11.43,10.84-20.96,19.63-29.51ZM508.93,58.76l4.28-4.35c-1.65-3.6-3.39-6.75-5.75-9.69l-4.31,2.86c2.33,3.76,3.96,7.11,5.79,11.17ZM441.75,78.96c2.84-1.14,5.63-1.7,8.78-1.57.77-9.64,3.15-18.93,7.51-27.93-3.71-1.56-7.26-2.89-11.02-4.05-8.78,8.24-15.42,18.1-19.71,29.46,3.25,1.01,6.08,2.83,8.25,5.37,2.09-.62,4-.99,6.18-1.28ZM388.19,59.54l3.78-.61c2.93-.46,5.85-.04,8.61,1.25,1.91-4.37,3.98-8.34,6.32-12.65-1.26.45-2.25,1.01-3.27,1.64-5.3,2.84-10.95,6.47-15.45,10.38ZM492.91,66.96c.68,2.7,0,5.04.44,7.65l9.13-9.31-.07-17.16c-7.32,5.07-13.47,10.8-18.64,17.58,3.19,3.17,5.72,6.44,8.18,10,.72-.19.99-1.06.95-1.8-.17-2.38-.4-4.6.02-6.96ZM503.02,64.72l5.58-5.59c-1.65-3.85-3.2-7.29-5.56-10.74-.34,1.33-.06,2.44-.06,3.67v9.79c0,.97-.03,1.74.05,2.87ZM468.09,70.36c1.76-4.34,3.63-8.3,5.86-12.46l-5.7-3.58-9.35-4.56c-4.29,8.75-6.74,17.96-7.45,27.62,4.68.46,8.88,2.12,12.57,4.95l4.07-11.96ZM516.66,83.51l2.5-.07-1.54-12.79c-.66-5.49-2.02-10.66-4.23-15.78l-4.29,4.27c1.57,4.24,3.1,8.27,4.3,12.6l3.26,11.77ZM472.66,82.81c2.77-6.29,5.98-11.99,10.19-17.52-2.63-2.63-5.4-4.91-8.52-7.18-4.43,7.86-7.51,16.03-9.91,24.52,2.38,1.87,4.12,3.96,5.77,6.24l2.48-6.06ZM385.71,73.06c1.31,5.11,4.14,9.59,8.17,12.99.99-8.92,3.17-17.22,6.56-25.45-4.4-2.31-9.81-1.63-13.96.22-.95.42-1.34,1.33-1.4,2.28-.24,3.41-.22,6.64.63,9.96ZM502.98,84.8c-.05.85-.05,1.5,0,2.26,4.27-1.95,8.42-3.07,13.22-3.49-2.08-8.3-4.3-16.14-7.46-24.03l-5.68,5.77c-.34.84-.22,2.3-.07,3.34v16.15ZM384.29,71.14c-.22-3.02-.23-5.4-.18-8.46l-4.15,3.81c1.93,1.55,3.14,2.9,4.33,4.66ZM379.37,66.67c-2.62-1.64-5.33-2.24-8.29-2.12-7.56.29-13.48,6.66-13.25,14.23.12,3.81,1.73,7.4,4.75,9.78.2.16.57-.69.71-.91,5.16-8.58,9.06-13.54,16.09-20.98ZM482.87,85.33l8.89-9.04c-2.27-3.67-5.01-7.03-8.21-10.32-5.57,7.38-9.76,15.54-12.68,24.18l2.18,5.3,9.83-10.12ZM499.08,89.16l3.41-1.89-.07-21.31-9.05,9.19c-.06.84-.25,2.23.05,2.96,2.22,3.68,3.98,7.15,5.67,11.06ZM374.35,113.24c2.16-10.62,9.44-21.55,19.22-26.28-4.18-3.36-6.89-7.68-8.46-12.64-.96-3.04-2.69-5.67-5.47-7.42-6.58,6.67-12.04,13.76-16.73,21.97l8.82,7.48.13,2.69v14.34c.85.2,1.69.24,2.49-.14ZM419.77,83.85l2.15-8.91c-4.74.62-8.66,3.7-10.57,7.45-2.35,4.61-2.11,9.67.38,13.89l2.98,2.03c1.62-4.24,4.08-10.43,5.06-14.47ZM423.37,89.79c1.62-4.87,1.35-9.84,3.47-14.55-1.57-.35-2.44-.43-3.82-.43-1.98,6.92-4.13,16.61-2.63,23.92l2.98-8.95ZM435.04,80.38c-2.26-2.69-4.82-4.26-7.88-5.06-1.55,4.49-2.78,8.76-3.01,13.61,2.69-4.21,6.41-6.79,10.9-8.55ZM492.77,93.38l-.02-2.91c-.02-2.86-.08-5.65,0-8.51l.12-3.61c.01-.45-.65-1.3-1.02-1.62l-18.72,19.17c2.61,4.64,3.81,9.46,4.03,14.45l6.69-8.6c2.79-3.05,5.57-5.67,8.92-8.38ZM450.49,80.05l-.11-1.81-4.72.5c.36.27.64.38,1.02.47l3.81.84ZM463.55,84.36c.22-.78,0-1.3-.69-1.75-3.48-2.28-7.14-3.99-11.37-4.25-.19.75-.19,1.64.09,2.28,4.4,1.74,7.76,4.76,10.63,8.54l1.35-4.83ZM493.21,92.99l5.42-3.59c-1.39-3.65-3.07-7.12-5.28-10.58-.25,1.33-.18,2.54-.17,3.89l.03,10.27ZM440.24,110.5c-1.53-3.94-1.73-7.29-.22-10.72,1.79-4.24,5.86-6.85,10.41-7.14l-.06-12.05c-2.38-.95-4.98-1.26-7.51-1.12-2.03.88-3.82,1.85-5.6,3.29,1.79,3.48,2.39,7.25,1.39,11.06-.61,2.31-1.47,4.84-3.53,6.39,3.81-4.97,4.86-11.38,1.84-17.1-4.76,4.28-6.61,10.53-5.07,16.63,1.14,4.52,4.1,8.6,8.34,10.76ZM436.84,81.9l3.11-2.22c-1.5.13-2.63.4-4.16.95l1.05,1.27ZM450.67,116.8c-3.84-.06-6.85-1.8-9.17-4.51-7.7-3.35-12.18-11.28-10.85-19.6.65-4.08,2.62-7.56,5.81-10.29l-1.07-1.73c-5.12,1.97-8.92,4.54-11.36,9.55-.7,10.99,2.64,21.44,13.31,26.06,4.09,1.77,6.98,4.9,8.34,9.27,3.93-.37,5.79-5.62,5-8.74ZM460.73,97.94l1.39-8.01c-2.6-4.01-6.31-7.24-10.9-9v11.7c3.95.28,7.29,1.96,9.51,5.31ZM466.83,99.03l2.97-8.81c-1.43-2.51-3.26-4.62-5.66-6.57l-1.56,6.15c1.91,2.86,3.11,5.77,4.25,9.23ZM513.92,89.64c1.89-.26,2.84.58,4.32,1.75l-1.96-7.4c-4.78.28-9.02,1.49-13.31,3.5-.07.8-.05,1.68-.05,2.5l-.02,3.53,4.46-2.09c2.02-.95,4.27-1.48,6.55-1.79ZM518.9,140.34c4.03-2.09,7.57-1.47,6.75-4.88-1.05-4.37-.51-6.05,2.78-9.03-1.38.27-2.6.83-3.77.67-1.3-.18-2.39-1.14-2.7-2.02-.42-1.23-.27-2.71.91-3.51l-.13.94c2.49-2.5,9.7-2.02,9.57.23-.01.26-.4.77-.66.87l-5.19,2.08c-1.21.48-2.42.12-3.72-.33,2.22,3.52,6.38-.55,8.73-1.02,1.83-.36,3.08-.69,4.12-2.34,1.48-2.34,1.3-5.08-.97-6.91-9.3-7.52-14.6-19.18-15.35-31.14-.86-.09-1.54-.08-2.56.04l1.99,7.54-8.06,7.33,9.26-2.72c.24-.07.83.05.95.24.64,1.03-3.25,7.41-4.09,8.67l-11.62,17.28c-.6.89-1.58,1.96-1.73,2.95-.21,1.42-.3,2.95-.11,4.37.21,1.5,2.6,3.75,3.75,10.06.53,2.89-.36,8.44-1.89,11.36h2.1s9.53-.12,9.53-.12l2.84-.09c.93-.03,2.25-.29,3.17-.64,1-.62,1.48-2.71.85-3.7-.48-.76-1.16-1.48-1.71-2.12-1.68.83-5.75,1.31-6.2-.41-.39-1.47,1.92-3.02,3.16-3.67ZM551.68,95.65l-3.05-2.6c-8.81-7.51-16.75-9.26-28.35-9.1.55,9.09,3.61,17.55,9.42,24.86,3.01-8.27,12.31-12.62,20.59-9.66.34-1.28.75-2.34,1.4-3.49ZM395.08,113.46c-1.13-6.26-1.61-11.79-1.75-17.68l.42-8.4c-9.55,4.3-17.13,15.87-19.06,26.11l20.4-.03ZM398.66,113.35l-.03-23.04-3.94-2.33c-.77,8.63-.15,17.02,1.41,25.41.98.14,1.79.13,2.56-.04ZM420.13,103.65c-.85-4.14-1.4-7.58-1.21-11.4l.1-4.25-4.02,10.66c1.92,1.6,3.37,3.26,5.12,4.98ZM500.96,94.76c.68-.32,1.33-.75,1.53-1.07l-.02-5.89-3.34,1.72.92,2.65.91,2.59ZM371.43,113.51l-.04-1.93v-13.04s0-1.99,0-1.99l-8.66-7.3-3.32,6.61c-1.47,2.92-4.43,10.2-5.03,13.24.71.69,1.09,1.57.76,2.51-.21.6-.95,1.13-1.77,1.86l18.06.02ZM500.53,95.06c-.37-1.43-1.29-4.31-1.89-5.33l-5.46,3.78.02,7.04,7.33-5.48ZM509.79,99.06l7.96-7.09c-1.74-4.69-11.88.41-14.81,1.99l-.04,2.56c-.03,1.73-.01,3.44.11,5.03l6.79-2.5ZM465.89,102.88l.71-2.37c-.66-3.54-1.9-6.86-4.11-9.91-.71,2.79-1.1,5.45-1.32,8.1.82,1.4,1.15,2.48,1.49,4.2.92.05,2.11.04,3.22-.02ZM444.44,123.69c-1.32-3.51-4.04-5.58-7.14-7.02-5.83-2.47-10.11-7.09-12.13-13.09-1.31-3.89-1.55-7.71-1.8-12.04-1.6,2.89-2.26,5.88-2.87,8.92,1.41,7.67,6.16,13.9,13.05,17.29l6.06,2.99c1.71.84,3.2,1.92,4.82,2.95ZM472.32,96.08l-1.96-4.49c-1.14,3.2-2.11,6.04-2.87,9.36,1.92-1.71,3.3-3.18,4.83-4.87ZM492.77,101l-.02-3.97c0-1.04.1-2.01-.06-3.1-6.19,4.93-11.21,10.69-15.53,17.22l.11,7.4c4.61-6.76,9.44-12.11,15.49-17.55ZM555.7,102.02l2.62,2.66c1.69-.75,2.93-2.4,3.25-3.88.43-1.94-.13-3.79-1.49-5.09-2.19-2.09-5.5-2.02-7.73,0l2.09,1.78c1.15-.95,2.41-1.02,3.41-.35.93.63,1.37,1.92.96,3.04-.46,1.28-1.74,1.75-3.11,1.84ZM502.43,101.09c.17-2.35.14-4.21.05-6.69l-1.5.86,1.45,5.82ZM493.22,106.19l8.78-4.19c-.32-2.14-.77-4.24-1.39-6.55-2.66,1.71-4.98,3.53-7.39,5.63v5.1ZM553.93,100.87c-.13-1.26-.08-1.94.18-3.17l-2.01-1.71c-.83,1.07-1.34,2.06-1.22,3.33l3.05,1.54ZM461.27,140.37l5.87-3.45c.85-9.43,4.24-17.04,9.08-25.07-.01-5.33-1.08-10.31-3.78-15.19l-5.14,5.18.2,4.74c-.21,7.01-2.33,13.02-5.35,19.31-.54,4.79-.93,9.42-.88,14.48ZM511.88,110.08l-8.48.4.09,13.57,12.44-18.39c.55-.81,5.37-8.65,4.55-8.98-1.25-.51-8.07,2.27-9.76,2.9l-7.98,3.01.64,6.98,8.76-.39c.21,0,.52.4.4.48l-.66.42ZM558.21,105.3l-1.73.11c-3.31.21-5.86-2.44-6.09-5.79-8.28-3.11-17.58,1.22-20.37,9.64,1.69,2.01,3.51,3.65,5.42,5.28,2.17,1.85,2.64,4.61,1.41,7.11-.9,1.84-2.27,3.05-4.48,3.74,4.57,6.2,12.79,7.97,19.55,4.53,8.82-4.5,12.01-16.22,6.29-24.62ZM423.24,125.52c1.54.12,2.84.1,4.35.06-.46-5.13-1.32-10.15-3.84-14.62l-2.8-4.98c-1.5-2.66-3.69-4.94-6.11-6.92-3.91,8.18-10,14.33-18.02,17.92l2.39,8.64,16.84-.06c2.38,0,4.65-.23,7.17-.04ZM550.79,99.76c.2,3.42,3.26,6.15,6.87,5.09-.62-1.8-5-4.32-6.87-5.09ZM492.77,106.25l-.09-4.61-3.28,3.03,3.37,1.58ZM502.3,109.55c.06-2.54.09-4.42-.12-6.71l-8.91,4.28c-.07.78-.07,1.43.06,2.11l8.97.32ZM453.96,144.85l6.28-3.76c.06-12.85,1.9-25.36,5.47-37.72l-3-.05c.15,3.59-.72,6.95-3.28,9.61-2.57,10.2-5.14,20.96-5.48,31.92ZM466.73,103.39c-1.96,6.89-3.44,13.41-4.28,20.45,2.78-3.98,5.79-16.2,4.28-20.45ZM492.73,120.75v-8.9s.02-1.79.02-1.79l-3.47-.39c-.14-.02-.42-.17-.52-.24s.14-.52.26-.6l3.44-2.22-3.33-1.69c-4.53,4.69-9.17,9.46-12,15.25l.02,10.58,6.32-3.46c3.04-1.66,6.03-2.98,9.28-4.33l-.03-2.2ZM492.83,109.18l-.1-1.73-2.15,1.47,2.25.26ZM502.6,123.54c-.25-3.51-.23-6.8-.28-10.17l-.04-2.93-9.1-.33.03,12.72c1.98-.63,3.44-.83,5.06-.17,1.52.89,2.51,2.32,3.17,4.06,1.31-.72,1.25-1.79,1.15-3.17ZM502.99,110.59h-.25v9.92h.25v-9.92ZM444.35,125.55c-1.32-2.14-3.15-2.73-4.82-3.8l-6.72-3.32c-2.88-1.42-5.23-3.41-7.56-5.58,1.3,4.17,2.43,8.01,2.62,12.02.01.24.47.76.8.76l15.67-.08ZM473.62,132.91c.15-4.49,1.07-8.36,2.68-12.23l-.12-7.78c-4.35,6.69-8.01,15.35-8.49,23.53l5.93-3.52ZM374.22,114.04c-.87-.1-1.67-.08-2.3.16.27,1.92.59,3.31,1.47,4.83l.83-4.98ZM395.89,116.97l-.78-3.04-20.51.03c-.67,3.56-1.01,6.9-.64,10.31,1.96-2.28,4.26-4.37,7.21-4.53,5.07-.26,9.98-.77,14.73-2.78ZM450.89,140.6c.58,1.74,1.34,3.16,2.52,4.58.38-4.6.54-8.8,1.46-13.22l3.75-17.96c-2.56,1.71-4.62,2.73-7.41,2.8.41,3.82-1.22,8.19-5.25,9.13l4.94,14.67ZM379.51,134c.81-.02,1.66-.01,2.26-.09.77-1.56,2.24-2.25,3.76-2.24s2.81.94,3.58,2.38h12.23c-2.34-5.46-3.98-10.77-5.38-16.56l-4.53,1.35c-1.48.44-3.06.8-4.61.91l-5.43.41c-3.21.24-5.78,2.24-7.47,4.96.37,3.14.98,6.09,2.02,8.97l3.57-.09ZM476.28,131.19l-.18-8.87c-1.34,3.37-1.98,6.68-2.01,10.21,1.01-.5,1.59-.85,2.19-1.34ZM501.35,127.18c-.67-1.21-1.09-2.02-1.73-2.9-1.51-2.07-4.05-1.93-6.41-1.09v12.48c3.32-2.49,5.88-5.2,8.14-8.48ZM492.84,135.91l-.04-12.53c-5.47,2.08-10.44,4.81-15.56,7.81.67,2.05,1.59,3.91,3,5.39,3.65,3.84,8.77,2.37,12.6-.67ZM375.37,134.04l-1.88-8.31c-1.5,2.6-1.95,5.44-1.8,8.32l3.68-.02ZM427.32,133.86l.37-7.86-9.87-.06-18.48.03,3.05,8.06,2.4-.04h20.31c.78,0,1.52.07,2.22-.12ZM442.96,133.02c.99-3.98,3.23-5.25,1.92-7.03l-4.44.12c-3.21.09-6.34.16-9.53,0l-2.83-.15v1.98c.02,2.09-.19,3.89-.42,6.05h2.46c-.4-3.53,2.11-6.08,5.45-6.37,3.58-.32,6.5,2.62,6.25,6.07-.02.23.87.41.93.2l.22-.87ZM502.47,131.53l.09-1.99-1.16-1.72c-.47.31-.76,1.08-.45,1.52l1.52,2.19ZM452.29,144.85l-2.6-6.27-3.52-10.53-1.59,3.03c-2.77,6.92,1.7,11.08,7.71,13.76ZM476.59,151.15l2.06-.1h21.8s2.02,0,2.02,0l.05-18.44-2.05-3.47c-2.3,2.77-4.56,4.97-7.26,7.03v9.16s-14.57-.01-14.57-.01c-.51,0-1.26,0-1.48.06l-.56,5.78ZM506.15,146.81c1.29-4.46.71-9.09-1.35-13.09l-1.45-2.82c-.24,1.44-.03,2.56.45,3.74,1.27,3.08,1.9,6.26,1.97,9.61.02.9.15,1.79.37,2.57ZM468.34,145.05c2.87-.42,5.15-.33,7.88-.11v-13.1s-8.63,5.2-8.63,5.2c-.06,2.74,0,5.33.75,8.01ZM492.72,136.63c-1.82,1.01-3.17,1.75-4.74,2.33-2.66.72-5.28.28-7.38-1.49-1.55-1.45-2.49-3.15-3.48-5.08l.02,12.55,15.66-.04-.09-8.27ZM502.89,151.04c.44.11,1.63.22,1.81-.14.37-.79.55-2.32.62-3.35.34-4.68-.14-9.24-2.24-13.4-.26,1.51-.25,2.88-.08,4.33l-.02,10.55-.09,2.01ZM381.08,144.88c-2.35-3.52-4.12-6.63-5.5-10.42l-3.79-.05.02,1.55v8.97s9.27-.05,9.27-.05ZM407.11,144.91c-2.17-3.54-3.96-6.82-5.61-10.45h-12.32c.56,2.84-1.52,4.94-3.9,4.88-2.56-.06-4.25-2.25-3.78-4.88l-5.49-.02c1.48,3.91,3.14,7.24,5.71,10.35.73.34,1.88.1,2.72.05,2.11-.13,4.15,0,6.26.07,2.22-.11,4.32-.08,6.55-.06l9.87.08ZM421.44,144.77c.75.17,1.56.17,2.17.01,1.83-3.23,2.93-6.54,3.53-10.32l-24.52-.02c1.64,3.66,3.43,6.89,5.53,10.26.76.38,2,.28,2.9.05l10.39.02ZM442.74,134.45c-.57-.16-1.15.23-1.35.75-.87,2.29-3.07,3.51-5.47,3.47-2.72-.04-4.91-1.55-5.72-4.19-1-.01-1.86,0-2.71.07-.56,3.75-1.75,6.8-3.34,10.36l25.74-.04c-2.04-1.34-3.75-2.43-5.14-4.15-1.42-1.84-2.01-3.95-2.02-6.27ZM467.78,144.91c-.44-2.62-.57-4.9-.66-7.58l-5.93,3.61.07,4.02,6.53-.04ZM459.64,144.9c.17,0,.67-.33.66-.45l-.17-2.91-4.95,3.17,4.45.19ZM411.42,150.97l-4.04-5.62-12.4-.04-12.07-.08h-.54c-.09,0-.09.23-.1.4,1.76,1.88,3.37,3.83,5.55,5.26,1.06.7,2.89.16,4.13.16l16.82.02c.93,0,1.85.07,2.64-.09ZM418.99,150.97c1.83-1.86,3.16-3.56,4.29-5.7l-12.48-.03c-.81,0-1.41-.09-2.24.15l4.23,5.71c.82.06,1.74.13,2.54.08l3.66-.22ZM447.41,150.93c1.86-1.69,3.26-3.13,5-4.93-.83-.45-1.61-.68-2.54-.68h-26.08c-1.24,2.23-2.57,3.84-4.27,5.77l3.11-.04h21.58c.84-.01,2.54.5,3.22-.13ZM460.24,151.15v-5.92s-6.28.12-6.28.12l1.34,5.73,2.22.03,2.72.04ZM469.89,151.17l-2.08-5.87-6.63-.04.09,5.9h8.62ZM475.67,151.08l.53-5.81-7.94-.02c.66,2.36,1.24,3.78,2.12,5.85h2.23s3.06-.03,3.06-.03ZM451.11,151.09l3.8.03-1.43-5.72-5.36,5.57c.91.32,1.88.12,2.99.13ZM481.37,176.14l21.61.05c7.8.02,12.69-6.47,14.38-13.36,1.2-4.89-3.54-6.75,4.56-11.81-1.77.02-3.43.25-5.26.39-3.19.25-6.36.13-9.65.08-.53,0-1.83-.3-2.07.15-1.01,1.91-1.72,3.63-2.82,5.36-2.75,4.36-6.04,6.71-10.29,9.47-3.62,2.35-8.39,5.54-10.48,9.66ZM387.86,151.53c-1.23-.11-2.42-.03-3.71-.03h-16.03c-.65,0-1.16-.04-1.89.02,0,8.51,4.18,16.4,11.4,20.89,8.49,5.27,19.19,5.05,27.56-.37,2.28-4.79,3.56-9.86,3.43-15.39-7.67,1.29-14.62-.64-20.77-5.12ZM409.03,151.54l-17.06-.02c-1.14,0-2.2-.4-3.38.06,7.43,5.3,17.44,6.94,25.65,2.57-3.4-3.73-1.46-2.6-5.2-2.61ZM418.25,151.61c-1.91-.28-3.16-.35-5.03-.11l2.03,2.19,3.01-2.08ZM446.81,151.66c-1.3-.5-1.93-.13-2.88-.13h-21.81c-.19-.01-4.15-.69-4.45,1.39l-.44,3.08c4.35,4.34,8.98,7.76,14.35,10.96l15.22-15.31ZM459.35,170.51l-4.34-19.05-4.02.07c-1.18-.14-2.49-.19-3.65.11l-15.36,15.53c8.33,4.65,17.31,7.44,26.69,8.5l.68-5.16ZM460.24,151.4l-4.82.02,2.48,10.72c.49,2.13.89,4.1,1.53,6.28.61-5.62.84-11.28.81-17.02ZM474.36,157.31c-1.81-1.83-3.07-3.72-4.3-5.88h-8.86c.06,6.9-.41,13.48-1.04,20.21-.13,1.4.5,2.78.64,4.26l5.31.16c3.89-5.78,6.49-12.03,8.25-18.74ZM475.52,151.46h-4.92c1.12,2.08,2.16,3.61,3.83,5.39l1.09-5.39ZM504.46,151.59c-1.75-.24-2.57-.2-3.77-.05h-22.28c-.58,0-1.61-.24-1.88.16l-1.24,5.92c4.02,3.6,8.37,5.24,13.9,4.74,6.64-.6,12.43-4.79,15.28-10.77ZM406.19,171.16c5.16-3.62,8.42-9.09,9.97-14.96l-1.7-1.66c-1.84.84-3.48,1.45-5.4,2.02.08,5-1.06,9.59-2.87,14.6ZM501.74,156.67c-.62.38-1.12.79-1.65,1.26-7.25,6.41-17.52,6.73-24.93.15-1.86,6.68-4.29,12.47-7.92,18.06l13.63.06c4.89-9.02,16.23-10.75,20.88-19.53ZM410.54,185.05c-.95-2.37-.47-5.04,1.39-6.71,1.18-1.06,2.63-1.32,4.12-.84,1.04.6,1.84,1.48,2.49,2.54l12.35-12.4c-5.31-3.06-9.81-6.47-13.97-10.61-1.93,6.84-6.05,12.42-11.86,16.19-5.81,11.06-16.32,18.19-29.37,16.93,5.11,11.81,18.03,17.39,29.69,11.77,4.57-2.2,8.13-5.88,10.56-10.42-2.9-2.3-4.09-3.17-5.4-6.44ZM456.48,185.9c.43-.29.75-1.5.84-2.01l1.24-7.26c-9.74-1.13-18.78-3.94-27.3-8.77l-12.07,12.16-.66,1.42c.25,3.24-.44,6.28-1.81,9.39,2.38,1.53,5.11,2.45,8.01,2.59,11.06.53,22.42-1.19,31.75-7.52ZM461.68,181.41l-1.16-4.39c-.08-.31-1.15-.28-1.2,0-.35,2.07-.92,4.54-1.73,6.54-.21.58-.29.96-.28,1.73,1.58-1.25,2.94-2.44,4.37-3.88ZM465.25,177.1l-4.26-.2,1.05,4.16c1.32-1.43,2.1-2.33,3.22-3.97ZM412.43,186.3l5.38-5.45c-.51-1.21-1.48-2.36-2.84-2.6s-2.62.7-3.28,1.9c-1.08,1.96-.78,4.45.73,6.14ZM416.39,190.59c1.15-2.46,2.46-7.22,1.52-9.27l-5.45,5.51c1.28,1.51,2.33,2.58,3.92,3.76Z"/>
    </g>
  </g>
</svg>